<svg width="240" height="60" viewBox="0 0 240 60" fill="none" xmlns="http://www.w3.org/2000/svg">
<rect width="240" height="60" fill="black"/>
<path d="M79.0074 24.24H85.0874L89.0674 38H84.3674L83.8474 35.36H80.2874L79.7074 38H75.2074L79.0074 24.24ZM83.3674 32.9L82.0674 26.88L80.7074 32.9H83.3674ZM93.6118 38.16C92.4785 38.16 91.5985 37.8067 90.9718 37.1C90.3585 36.38 90.0518 35.4 90.0518 34.16V24.82L94.2718 24.2V33.86C94.2718 34.2333 94.3585 34.5067 94.5318 34.68C94.7185 34.84 95.0385 34.92 95.4918 34.92C95.8251 34.92 96.1518 34.84 96.4718 34.68L96.6118 37.48C95.7185 37.9333 94.7185 38.16 93.6118 38.16ZM101.17 38.16C100.05 38.16 99.1771 37.8 98.5504 37.08C97.9237 36.36 97.6104 35.38 97.6104 34.14V27.98H101.85V33.96C101.85 34.2667 101.93 34.5067 102.09 34.68C102.264 34.84 102.484 34.92 102.75 34.92C103.017 34.92 103.29 34.84 103.57 34.68L103.79 37.46C103.497 37.6867 103.11 37.86 102.63 37.98C102.164 38.1 101.677 38.16 101.17 38.16ZM99.7304 26.48C99.1037 26.48 98.5704 26.2867 98.1304 25.9C97.7037 25.5 97.4904 25.0133 97.4904 24.44C97.4904 23.8667 97.7171 23.3867 98.1704 23C98.6237 22.6133 99.1437 22.42 99.7304 22.42C100.344 22.42 100.87 22.62 101.31 23.02C101.764 23.42 101.99 23.8933 101.99 24.44C101.99 25.0267 101.764 25.5133 101.31 25.9C100.857 26.2867 100.33 26.48 99.7304 26.48ZM112.655 36.14C112.308 36.8467 111.862 37.36 111.315 37.68C110.768 38 110.115 38.16 109.355 38.16C108.395 38.16 107.542 37.9267 106.795 37.46C106.062 36.98 105.488 36.3467 105.075 35.56C104.675 34.76 104.475 33.9067 104.475 33C104.475 32.04 104.695 31.1667 105.135 30.38C105.575 29.58 106.168 28.96 106.915 28.52C107.675 28.0667 108.495 27.84 109.375 27.84C110.135 27.84 110.782 28 111.315 28.32C111.862 28.64 112.308 29.1533 112.655 29.86V28.12H116.875V40.6L112.655 41.4V36.14ZM110.675 35C111.208 35 111.662 34.8133 112.035 34.44C112.422 34.0533 112.628 33.6 112.655 33.08V32.92C112.642 32.4 112.435 31.9533 112.035 31.58C111.635 31.1933 111.182 31 110.675 31C110.128 31 109.655 31.2 109.255 31.6C108.868 32 108.675 32.4667 108.675 33C108.675 33.56 108.875 34.0333 109.275 34.42C109.675 34.8067 110.142 35 110.675 35ZM124.201 38.16C123.148 38.16 122.208 37.9733 121.381 37.6C120.568 37.2267 119.934 36.7 119.481 36.02C119.028 35.34 118.801 34.5667 118.801 33.7V27.98H122.921V33.64C122.921 34.08 123.041 34.4267 123.281 34.68C123.534 34.92 123.848 35.04 124.221 35.04C124.581 35.04 124.874 34.92 125.101 34.68C125.341 34.4267 125.461 34.08 125.461 33.64V27.98H129.501V33.7C129.501 34.58 129.274 35.36 128.821 36.04C128.381 36.7067 127.761 37.2267 126.961 37.6C126.161 37.9733 125.241 38.16 124.201 38.16ZM135.859 38.16C134.993 38.16 134.179 37.9333 133.419 37.48C132.673 37.0133 132.073 36.3867 131.619 35.6C131.166 34.8 130.939 33.9133 130.939 32.94C130.939 31.98 131.166 31.1133 131.619 30.34C132.073 29.5533 132.679 28.94 133.439 28.5C134.199 28.06 135.006 27.84 135.859 27.84C136.553 27.84 137.193 28.0333 137.779 28.42C138.379 28.8067 138.833 29.3867 139.139 30.16V27.84H143.339V38H139.139V36.14C138.473 37.4867 137.379 38.16 135.859 38.16ZM137.159 35C137.693 35 138.146 34.8133 138.519 34.44C138.906 34.0533 139.113 33.6 139.139 33.08V32.92C139.113 32.3867 138.899 31.9333 138.499 31.56C138.113 31.1867 137.666 31 137.159 31C136.599 31 136.119 31.2 135.719 31.6C135.333 31.9867 135.139 32.4533 135.139 33C135.139 33.56 135.339 34.0333 135.739 34.42C136.139 34.8067 136.613 35 137.159 35ZM145.365 28.12H149.385V30.16C149.839 29.3733 150.352 28.7933 150.925 28.42C151.512 28.0333 152.205 27.84 153.005 27.84C153.792 27.84 154.472 28.04 155.045 28.44C155.632 28.8267 156.072 29.3533 156.365 30.02C157.219 28.5667 158.459 27.84 160.085 27.84C160.859 27.84 161.532 28.0467 162.105 28.46C162.692 28.8733 163.145 29.4733 163.465 30.26C163.785 31.0333 163.945 31.9467 163.945 33V38H159.725V33C159.725 32.32 159.605 31.8067 159.365 31.46C159.139 31.1133 158.819 30.94 158.405 30.94C157.952 30.94 157.559 31.1333 157.225 31.52C156.905 31.9067 156.745 32.3733 156.745 32.92V38H152.565V33C152.565 32.32 152.445 31.8067 152.205 31.46C151.979 31.1133 151.652 30.94 151.225 30.94C150.772 30.94 150.385 31.1333 150.065 31.52C149.745 31.9067 149.585 32.3733 149.585 32.92V38H145.365V28.12Z" fill="white"/>
</svg>
