<svg width="630" height="30" viewBox="0 0 630 30" fill="none" xmlns="http://www.w3.org/2000/svg">
<path d="M5.05211 20.1C4.55878 20.1 4.20544 19.9933 3.99211 19.78C3.77878 19.5533 3.67211 19.1333 3.67211 18.52C3.67211 18.1067 3.71211 17.58 3.79211 16.94C3.88544 16.2867 4.03211 15.3933 4.23211 14.26C4.57878 12.1667 4.85211 10.3533 5.05211 8.82C5.17211 7.86 5.23211 7.06 5.23211 6.42C5.23211 5.82 5.01211 5.52 4.57211 5.52C4.22544 5.52 3.80544 5.7 3.31211 6.06C2.83211 6.40667 2.29878 6.96667 1.71211 7.74C1.52544 7.99333 1.31878 8.12 1.09211 8.12C0.905443 8.12 0.738776 8.03333 0.592109 7.86C0.458776 7.67333 0.392109 7.46667 0.392109 7.24C0.392109 7.02667 0.432109 6.81333 0.512109 6.6C0.605443 6.37333 0.752109 6.12 0.952109 5.84C1.59211 4.94667 2.30544 4.26 3.09211 3.78C3.87878 3.28667 4.66544 3.04 5.45211 3.04C6.18544 3.04 6.74544 3.27333 7.13211 3.74C7.53211 4.20667 7.73211 4.88667 7.73211 5.78C7.73211 6.14 7.69878 6.56667 7.63211 7.06C7.56544 7.54 7.50544 7.93333 7.45211 8.24C7.39878 8.54667 7.35878 8.76 7.33211 8.88C8.09211 6.70667 8.94544 5.19333 9.89211 4.34C10.8388 3.47333 11.8788 3.04 13.0121 3.04C13.8788 3.04 14.5588 3.34667 15.0521 3.96C15.5588 4.57333 15.8121 5.44 15.8121 6.56C15.8121 7 15.7521 7.54667 15.6321 8.2C16.2988 6.36 17.0788 5.04 17.9721 4.24C18.8654 3.44 19.8921 3.04 21.0521 3.04C21.9854 3.04 22.6988 3.34 23.1921 3.94C23.6988 4.54 23.9521 5.38 23.9521 6.46C23.9521 7.04667 23.8654 7.76 23.6921 8.6L22.4721 14.32C22.3388 14.9867 22.2721 15.56 22.2721 16.04C22.2721 16.6 22.3988 17.02 22.6521 17.3C22.9188 17.58 23.2854 17.72 23.7521 17.72C24.1921 17.72 24.6188 17.5733 25.0321 17.28C25.4588 16.9867 25.9588 16.5 26.5321 15.82C26.6921 15.6333 26.8721 15.54 27.0721 15.54C27.2454 15.54 27.3788 15.62 27.4721 15.78C27.5788 15.94 27.6321 16.16 27.6321 16.44C27.6321 16.96 27.5054 17.3733 27.2521 17.68C26.5588 18.52 25.8721 19.1333 25.1921 19.52C24.5121 19.9067 23.7988 20.1 23.0521 20.1C21.9188 20.1 21.0321 19.7667 20.3921 19.1C19.7521 18.42 19.4321 17.5133 19.4321 16.38C19.4321 15.5933 19.5921 14.4533 19.9121 12.96L20.7121 9.3C20.7388 9.18 20.7854 8.96667 20.8521 8.66C20.9188 8.35333 20.9721 8.06667 21.0121 7.8C21.0521 7.52 21.0721 7.24667 21.0721 6.98C21.0721 6.51333 20.9788 6.16667 20.7921 5.94C20.6188 5.7 20.3654 5.58 20.0321 5.58C19.4054 5.58 18.7454 5.98667 18.0521 6.8C17.3721 7.6 16.7188 8.93333 16.0921 10.8C15.4788 12.6667 14.9788 15.0933 14.5921 18.08C14.4988 18.88 14.3321 19.42 14.0921 19.7C13.8654 19.9667 13.4921 20.1 12.9721 20.1C12.5188 20.1 12.1854 19.9933 11.9721 19.78C11.7721 19.5667 11.6721 19.1667 11.6721 18.58C11.6721 18.0333 11.7454 17.32 11.8921 16.44C12.0388 15.5467 12.2254 14.5 12.4521 13.3C13.0654 10.0733 13.3721 7.99333 13.3721 7.06C13.3721 6.55333 13.2721 6.18 13.0721 5.94C12.8854 5.7 12.5988 5.58 12.2121 5.58C11.5588 5.58 10.8854 5.95333 10.1921 6.7C9.49878 7.43333 8.81878 8.74667 8.15211 10.64C7.49878 12.52 6.95211 15.0667 6.51211 18.28C6.41878 18.96 6.27878 19.4333 6.09211 19.7C5.91878 19.9667 5.57211 20.1 5.05211 20.1ZM28.4805 20.1C27.6539 20.1 26.9939 19.8 26.5005 19.2C26.0072 18.6 25.7605 17.8133 25.7605 16.84C25.7605 15.7733 26.0072 14.7667 26.5005 13.82C26.9939 12.86 27.6472 12.0933 28.4605 11.52C29.2872 10.9333 30.1605 10.64 31.0805 10.64C31.3739 10.64 31.5672 10.7 31.6605 10.82C31.7672 10.9267 31.8539 11.1267 31.9205 11.42C32.2005 11.3667 32.4939 11.34 32.8005 11.34C33.4539 11.34 33.7805 11.5733 33.7805 12.04C33.7805 12.32 33.6805 12.9867 33.4805 14.04C33.1739 15.5733 33.0205 16.64 33.0205 17.24C33.0205 17.44 33.0672 17.6 33.1605 17.72C33.2672 17.84 33.4005 17.9 33.5605 17.9C33.8139 17.9 34.1205 17.74 34.4805 17.42C34.8405 17.0867 35.3272 16.5533 35.9405 15.82C36.1005 15.6333 36.2805 15.54 36.4805 15.54C36.6539 15.54 36.7872 15.62 36.8805 15.78C36.9872 15.94 37.0405 16.16 37.0405 16.44C37.0405 16.9733 36.9139 17.3867 36.6605 17.68C36.1139 18.36 35.5339 18.9333 34.9205 19.4C34.3072 19.8667 33.7139 20.1 33.1405 20.1C32.7005 20.1 32.2939 19.9533 31.9205 19.66C31.5605 19.3533 31.2872 18.94 31.1005 18.42C30.4072 19.54 29.5339 20.1 28.4805 20.1ZM29.2005 18.08C29.4939 18.08 29.7739 17.9067 30.0405 17.56C30.3072 17.2133 30.5005 16.7533 30.6205 16.18L31.3605 12.5C30.8005 12.5133 30.2805 12.7267 29.8005 13.14C29.3339 13.54 28.9605 14.0733 28.6805 14.74C28.4005 15.4067 28.2605 16.1133 28.2605 16.86C28.2605 17.2733 28.3405 17.58 28.5005 17.78C28.6739 17.98 28.9072 18.08 29.2005 18.08ZM37.4551 20.1C36.8551 20.1 36.3617 19.8267 35.9751 19.28C35.6017 18.72 35.4151 18.0267 35.4151 17.2C35.4151 16.2 35.4817 15.2867 35.6151 14.46C35.7484 13.62 35.9684 12.7333 36.2751 11.8C36.4084 11.4 36.5951 11.1133 36.8351 10.94C37.0751 10.7667 37.4551 10.68 37.9751 10.68C38.2684 10.68 38.4684 10.7267 38.5751 10.82C38.6951 10.9133 38.7551 11.0533 38.7551 11.24C38.7551 11.3467 38.6817 11.7067 38.5351 12.32C38.4017 12.8133 38.2951 13.26 38.2151 13.66C37.9484 15.06 37.8151 15.9933 37.8151 16.46C37.8151 16.74 37.8484 16.94 37.9151 17.06C37.9817 17.1667 38.0884 17.22 38.2351 17.22C38.4351 17.22 38.6817 17.02 38.9751 16.62C39.2817 16.22 39.6017 15.6133 39.9351 14.8C40.2817 13.9867 40.6151 12.9867 40.9351 11.8C41.0417 11.4 41.2017 11.1133 41.4151 10.94C41.6417 10.7667 41.9751 10.68 42.4151 10.68C42.7217 10.68 42.9351 10.72 43.0551 10.8C43.1751 10.8667 43.2351 11 43.2351 11.2C43.2351 11.5333 43.0684 12.4467 42.7351 13.94C42.3617 15.6467 42.1751 16.7 42.1751 17.1C42.1751 17.3533 42.2284 17.5533 42.3351 17.7C42.4417 17.8333 42.5817 17.9 42.7551 17.9C43.0217 17.9 43.3351 17.74 43.6951 17.42C44.0684 17.0867 44.5617 16.5533 45.1751 15.82C45.3351 15.6333 45.5151 15.54 45.7151 15.54C45.8884 15.54 46.0217 15.62 46.1151 15.78C46.2217 15.94 46.2751 16.16 46.2751 16.44C46.2751 16.9733 46.1484 17.3867 45.8951 17.68C45.3217 18.3867 44.7017 18.9667 44.0351 19.42C43.3817 19.8733 42.6351 20.1 41.7951 20.1C41.1551 20.1 40.6817 19.8533 40.3751 19.36C40.0817 18.8667 39.9351 18.1733 39.9351 17.28C39.7084 18.1867 39.3684 18.8867 38.9151 19.38C38.4617 19.86 37.9751 20.1 37.4551 20.1ZM46.0734 20.1C45.5667 20.1 45.2067 19.8333 44.9934 19.3C44.7934 18.7667 44.6934 17.9133 44.6934 16.74C44.6934 15.0067 44.94 13.36 45.4334 11.8C45.5534 11.4133 45.7467 11.1333 46.0134 10.96C46.2934 10.7733 46.68 10.68 47.1734 10.68C47.44 10.68 47.6267 10.7133 47.7334 10.78C47.84 10.8467 47.8934 10.9733 47.8934 11.16C47.8934 11.3733 47.7934 11.8533 47.5934 12.6C47.46 13.1333 47.3534 13.6 47.2734 14C47.1934 14.4 47.1267 14.8933 47.0734 15.48C47.5134 14.3333 48.0067 13.4 48.5534 12.68C49.1 11.96 49.6334 11.4467 50.1534 11.14C50.6867 10.8333 51.1734 10.68 51.6134 10.68C52.48 10.68 52.9134 11.1133 52.9134 11.98C52.9134 12.1533 52.8534 12.5733 52.7334 13.24C52.6267 13.7733 52.5734 14.1067 52.5734 14.24C52.5734 14.7067 52.74 14.94 53.0734 14.94C53.4467 14.94 53.9267 14.6467 54.5134 14.06C54.6867 13.8867 54.8667 13.8 55.0534 13.8C55.2267 13.8 55.36 13.88 55.4534 14.04C55.56 14.1867 55.6134 14.3867 55.6134 14.64C55.6134 15.1333 55.48 15.52 55.2134 15.8C54.84 16.1867 54.4 16.52 53.8934 16.8C53.4 17.0667 52.8734 17.2 52.3134 17.2C51.6067 17.2 51.0667 17.02 50.6934 16.66C50.3334 16.3 50.1534 15.8133 50.1534 15.2C50.1534 15 50.1734 14.8 50.2134 14.6C50.24 14.3333 50.2534 14.1533 50.2534 14.06C50.2534 13.8467 50.18 13.74 50.0334 13.74C49.8334 13.74 49.5667 13.9667 49.2334 14.42C48.9134 14.86 48.5934 15.4467 48.2734 16.18C47.9534 16.9133 47.6934 17.6867 47.4934 18.5C47.3467 19.1267 47.1734 19.5533 46.9734 19.78C46.7867 19.9933 46.4867 20.1 46.0734 20.1ZM56.3749 9.36C55.8149 9.36 55.3949 9.23333 55.1149 8.98C54.8349 8.71333 54.6949 8.34667 54.6949 7.88C54.6949 7.41333 54.8749 7.02667 55.2349 6.72C55.6083 6.4 56.0683 6.24 56.6149 6.24C57.1083 6.24 57.5083 6.36 57.8149 6.6C58.1216 6.84 58.2749 7.18 58.2749 7.62C58.2749 8.15333 58.1016 8.58 57.7549 8.9C57.4083 9.20667 56.9483 9.36 56.3749 9.36ZM56.2149 20.1C55.3483 20.1 54.7149 19.7933 54.3149 19.18C53.9283 18.5667 53.7349 17.7533 53.7349 16.74C53.7349 16.14 53.8083 15.3733 53.9549 14.44C54.1149 13.4933 54.3149 12.6133 54.5549 11.8C54.6749 11.3733 54.8349 11.08 55.0349 10.92C55.2349 10.76 55.5549 10.68 55.9949 10.68C56.6749 10.68 57.0149 10.9067 57.0149 11.36C57.0149 11.6933 56.8883 12.4667 56.6349 13.68C56.3149 15.1467 56.1549 16.14 56.1549 16.66C56.1549 17.06 56.2083 17.3667 56.3149 17.58C56.4216 17.7933 56.6016 17.9 56.8549 17.9C57.0949 17.9 57.3949 17.7333 57.7549 17.4C58.1149 17.0667 58.5949 16.54 59.1949 15.82C59.3549 15.6333 59.5349 15.54 59.7349 15.54C59.9083 15.54 60.0416 15.62 60.1349 15.78C60.2416 15.94 60.2949 16.16 60.2949 16.44C60.2949 16.9733 60.1683 17.3867 59.9149 17.68C58.5949 19.2933 57.3616 20.1 56.2149 20.1ZM62.3968 20.54C61.7035 20.54 61.1701 20.38 60.7968 20.06C60.4368 19.74 60.2568 19.38 60.2568 18.98C60.2568 18.6333 60.3835 18.3333 60.6368 18.08C60.8901 17.8267 61.2635 17.7 61.7568 17.7C61.9301 17.7 62.1301 17.72 62.3568 17.76C62.5968 17.7867 62.7768 17.8067 62.8968 17.82C62.8835 17.4733 62.8035 17.1467 62.6568 16.84C62.5235 16.5333 62.3501 16.24 62.1368 15.96C61.9235 15.6667 61.7235 15.4133 61.5368 15.2C61.1235 15.9867 60.7101 16.64 60.2968 17.16C59.8968 17.68 59.4568 18.1733 58.9768 18.64C58.7368 18.88 58.4835 19 58.2168 19C58.0035 19 57.8301 18.9267 57.6968 18.78C57.5635 18.62 57.4968 18.4267 57.4968 18.2C57.4968 17.9333 57.5901 17.6867 57.7768 17.46L58.0368 17.14C58.7701 16.2333 59.3235 15.4867 59.6968 14.9C59.9368 14.5133 60.1768 14.0533 60.4168 13.52C60.6701 12.9867 60.9968 12.26 61.3968 11.34C61.6501 10.7533 62.1768 10.46 62.9768 10.46C63.3501 10.46 63.6101 10.4933 63.7568 10.56C63.9035 10.6267 63.9768 10.7333 63.9768 10.88C63.9768 10.96 63.9501 11.0867 63.8968 11.26C63.8435 11.4333 63.7701 11.6067 63.6768 11.78C63.4368 12.26 63.3168 12.6667 63.3168 13C63.3168 13.2 63.3835 13.42 63.5168 13.66C63.6635 13.9 63.8835 14.2 64.1768 14.56C64.6035 15.12 64.9235 15.6 65.1368 16C65.3635 16.3867 65.4768 16.8133 65.4768 17.28C65.4768 17.84 65.3435 18.3733 65.0768 18.88C64.8235 19.3733 64.4635 19.7733 63.9968 20.08C63.5301 20.3867 62.9968 20.54 62.3968 20.54Z" fill="black"/>
<path d="M146.563 19.16C144.79 19.16 143.37 18.8267 142.303 18.16C141.237 17.48 140.703 16.4467 140.703 15.06C140.703 14.3267 140.83 13.7667 141.083 13.38C141.337 12.9933 141.71 12.8 142.203 12.8C142.563 12.8 142.857 12.8933 143.083 13.08C143.31 13.2667 143.423 13.5067 143.423 13.8C143.423 14.0667 143.403 14.3 143.363 14.5C143.363 14.5533 143.35 14.6467 143.323 14.78C143.31 14.9133 143.303 15.0533 143.303 15.2C143.303 15.8 143.603 16.2467 144.203 16.54C144.817 16.8333 145.67 16.98 146.763 16.98C147.897 16.98 148.783 16.78 149.423 16.38C150.063 15.9667 150.383 15.3933 150.383 14.66C150.383 14.2067 150.237 13.82 149.943 13.5C149.65 13.1667 149.283 12.8933 148.843 12.68C148.403 12.4533 147.783 12.18 146.983 11.86C145.957 11.46 145.117 11.08 144.463 10.72C143.823 10.36 143.27 9.87333 142.803 9.26C142.35 8.63333 142.123 7.86 142.123 6.94C142.123 5.98 142.377 5.12667 142.883 4.38C143.403 3.63333 144.143 3.05333 145.103 2.64C146.077 2.22667 147.217 2.02 148.523 2.02C149.497 2.02 150.39 2.16667 151.203 2.46C152.017 2.74 152.663 3.17333 153.143 3.76C153.637 4.34667 153.883 5.06667 153.883 5.92C153.883 6.76 153.757 7.39333 153.503 7.82C153.25 8.24667 152.877 8.46 152.383 8.46C152.037 8.46 151.743 8.35333 151.503 8.14C151.277 7.92667 151.163 7.67333 151.163 7.38C151.163 7.12667 151.183 6.89333 151.223 6.68C151.263 6.28 151.283 6.02667 151.283 5.92C151.283 5.36 151.01 4.93333 150.463 4.64C149.917 4.34667 149.237 4.2 148.423 4.2C147.277 4.2 146.397 4.41333 145.783 4.84C145.183 5.25333 144.883 5.84 144.883 6.6C144.883 7.10667 145.037 7.54 145.343 7.9C145.663 8.26 146.057 8.56 146.523 8.8C146.99 9.04 147.643 9.32667 148.483 9.66C149.497 10.0733 150.31 10.4467 150.923 10.78C151.537 11.1133 152.057 11.5667 152.483 12.14C152.923 12.7133 153.143 13.42 153.143 14.26C153.143 15.8333 152.543 17.0467 151.343 17.9C150.157 18.74 148.563 19.16 146.563 19.16ZM165.051 12.86C165.224 12.86 165.357 12.9467 165.451 13.12C165.544 13.2933 165.591 13.5133 165.591 13.78C165.591 14.42 165.397 14.8 165.011 14.92C164.211 15.2 163.331 15.36 162.371 15.4C162.117 16.52 161.617 17.42 160.871 18.1C160.124 18.7667 159.277 19.1 158.331 19.1C157.531 19.1 156.844 18.9067 156.271 18.52C155.711 18.1333 155.284 17.62 154.991 16.98C154.697 16.34 154.551 15.6467 154.551 14.9C154.551 13.8867 154.744 12.9867 155.131 12.2C155.517 11.4 156.051 10.78 156.731 10.34C157.411 9.88667 158.164 9.66 158.991 9.66C160.004 9.66 160.817 10.0133 161.431 10.72C162.057 11.4133 162.424 12.2733 162.531 13.3C163.157 13.26 163.904 13.1267 164.771 12.9C164.877 12.8733 164.971 12.86 165.051 12.86ZM158.491 16.98C158.917 16.98 159.284 16.8067 159.591 16.46C159.911 16.1133 160.124 15.6133 160.231 14.96C159.817 14.68 159.497 14.3133 159.271 13.86C159.057 13.4067 158.951 12.9267 158.951 12.42C158.951 12.2067 158.971 11.9933 159.011 11.78H158.911C158.377 11.78 157.931 12.04 157.571 12.56C157.224 13.0667 157.051 13.7867 157.051 14.72C157.051 15.4533 157.191 16.0133 157.471 16.4C157.764 16.7867 158.104 16.98 158.491 16.98ZM175.234 14.54C175.407 14.54 175.541 14.62 175.634 14.78C175.741 14.94 175.794 15.16 175.794 15.44C175.794 15.9733 175.667 16.3867 175.414 16.68C174.867 17.3467 174.267 17.92 173.614 18.4C172.961 18.8667 172.314 19.1 171.674 19.1C170.661 19.1 169.887 18.5067 169.354 17.32C168.794 18.0267 168.301 18.5 167.874 18.74C167.461 18.98 166.974 19.1 166.414 19.1C165.601 19.1 164.927 18.8 164.394 18.2C163.874 17.5867 163.614 16.7933 163.614 15.82C163.614 14.7533 163.841 13.7667 164.294 12.86C164.747 11.94 165.367 11.1933 166.154 10.62C166.954 10.0333 167.847 9.68667 168.834 9.58C169.087 6.99333 169.567 4.78667 170.274 2.96C170.994 1.12 171.934 0.199999 173.094 0.199999C173.667 0.199999 174.141 0.459999 174.514 0.98C174.901 1.5 175.094 2.28667 175.094 3.34C175.094 4.83333 174.727 6.58 173.994 8.58C173.261 10.58 172.281 12.6333 171.054 14.74C171.107 15.5133 171.221 16.0667 171.394 16.4C171.581 16.7333 171.814 16.9 172.094 16.9C172.454 16.9 172.821 16.74 173.194 16.42C173.567 16.1 174.067 15.5667 174.694 14.82C174.854 14.6333 175.034 14.54 175.234 14.54ZM172.874 2.16C172.621 2.16 172.367 2.61333 172.114 3.52C171.861 4.41333 171.641 5.58667 171.454 7.04C171.281 8.49333 171.154 10.0133 171.074 11.6C172.567 8.34667 173.314 5.73333 173.314 3.76C173.314 3.25333 173.267 2.86 173.174 2.58C173.094 2.3 172.994 2.16 172.874 2.16ZM167.114 17.08C167.367 17.08 167.621 16.98 167.874 16.78C168.127 16.5667 168.447 16.18 168.834 15.62C168.701 14.9 168.634 14.0933 168.634 13.2C168.634 12.88 168.647 12.36 168.674 11.64C167.941 11.8667 167.327 12.36 166.834 13.12C166.354 13.8667 166.114 14.7 166.114 15.62C166.114 16.5933 166.447 17.08 167.114 17.08ZM176.432 19.1C175.605 19.1 174.945 18.8 174.452 18.2C173.958 17.6 173.712 16.8133 173.712 15.84C173.712 14.7733 173.958 13.7667 174.452 12.82C174.945 11.86 175.598 11.0933 176.412 10.52C177.238 9.93333 178.112 9.64 179.032 9.64C179.325 9.64 179.518 9.7 179.612 9.82C179.718 9.92667 179.805 10.1267 179.872 10.42C180.152 10.3667 180.445 10.34 180.752 10.34C181.405 10.34 181.732 10.5733 181.732 11.04C181.732 11.32 181.632 11.9867 181.432 13.04C181.125 14.5733 180.972 15.64 180.972 16.24C180.972 16.44 181.018 16.6 181.112 16.72C181.218 16.84 181.352 16.9 181.512 16.9C181.765 16.9 182.072 16.74 182.432 16.42C182.792 16.0867 183.278 15.5533 183.892 14.82C184.052 14.6333 184.232 14.54 184.432 14.54C184.605 14.54 184.738 14.62 184.832 14.78C184.938 14.94 184.992 15.16 184.992 15.44C184.992 15.9733 184.865 16.3867 184.612 16.68C184.065 17.36 183.485 17.9333 182.872 18.4C182.258 18.8667 181.665 19.1 181.092 19.1C180.652 19.1 180.245 18.9533 179.872 18.66C179.512 18.3533 179.238 17.94 179.052 17.42C178.358 18.54 177.485 19.1 176.432 19.1ZM177.152 17.08C177.445 17.08 177.725 16.9067 177.992 16.56C178.258 16.2133 178.452 15.7533 178.572 15.18L179.312 11.5C178.752 11.5133 178.232 11.7267 177.752 12.14C177.285 12.54 176.912 13.0733 176.632 13.74C176.352 14.4067 176.212 15.1133 176.212 15.86C176.212 16.2733 176.292 16.58 176.452 16.78C176.625 16.98 176.858 17.08 177.152 17.08ZM190.946 14.54C191.12 14.54 191.253 14.62 191.346 14.78C191.453 14.94 191.506 15.16 191.506 15.44C191.506 15.9733 191.38 16.3867 191.126 16.68C190.553 17.3867 189.926 17.9667 189.246 18.42C188.58 18.8733 187.82 19.1 186.966 19.1C185.793 19.1 184.92 18.5667 184.346 17.5C183.786 16.4333 183.506 15.0533 183.506 13.36C183.506 11.7333 183.713 9.88 184.126 7.8C184.553 5.72 185.173 3.93333 185.986 2.44C186.813 0.946665 187.793 0.199999 188.926 0.199999C189.566 0.199999 190.066 0.499999 190.426 1.1C190.8 1.68667 190.986 2.53333 190.986 3.64C190.986 5.22667 190.546 7.06667 189.666 9.16C188.786 11.2533 187.593 13.3267 186.086 15.38C186.18 15.9267 186.333 16.32 186.546 16.56C186.76 16.7867 187.04 16.9 187.386 16.9C187.933 16.9 188.413 16.7467 188.826 16.44C189.24 16.12 189.766 15.58 190.406 14.82C190.566 14.6333 190.746 14.54 190.946 14.54ZM188.486 2.18C188.18 2.18 187.833 2.73333 187.446 3.84C187.06 4.94667 186.72 6.32 186.426 7.96C186.133 9.6 185.973 11.1733 185.946 12.68C186.893 11.12 187.646 9.56 188.206 8C188.766 6.42667 189.046 4.99333 189.046 3.7C189.046 2.68667 188.86 2.18 188.486 2.18ZM198.81 14.54C198.983 14.54 199.116 14.62 199.21 14.78C199.316 14.94 199.37 15.16 199.37 15.44C199.37 15.9733 199.243 16.3867 198.99 16.68C198.496 17.28 197.796 17.8333 196.89 18.34C195.996 18.8467 195.036 19.1 194.01 19.1C192.61 19.1 191.523 18.72 190.75 17.96C189.976 17.2 189.59 16.16 189.59 14.84C189.59 13.92 189.783 13.0667 190.17 12.28C190.556 11.48 191.09 10.8467 191.77 10.38C192.463 9.91333 193.243 9.68 194.11 9.68C194.883 9.68 195.503 9.91333 195.97 10.38C196.436 10.8333 196.67 11.4533 196.67 12.24C196.67 13.16 196.336 13.9533 195.67 14.62C195.016 15.2733 193.903 15.7933 192.33 16.18C192.663 16.7933 193.296 17.1 194.23 17.1C194.83 17.1 195.51 16.8933 196.27 16.48C197.043 16.0533 197.71 15.5 198.27 14.82C198.43 14.6333 198.61 14.54 198.81 14.54ZM193.77 11.64C193.276 11.64 192.856 11.9267 192.51 12.5C192.176 13.0733 192.01 13.7667 192.01 14.58V14.62C192.796 14.4333 193.416 14.1533 193.87 13.78C194.323 13.4067 194.55 12.9733 194.55 12.48C194.55 12.2267 194.476 12.0267 194.33 11.88C194.196 11.72 194.01 11.64 193.77 11.64ZM201.461 19.54C200.768 19.54 200.235 19.38 199.861 19.06C199.501 18.74 199.321 18.38 199.321 17.98C199.321 17.6333 199.448 17.3333 199.701 17.08C199.955 16.8267 200.328 16.7 200.821 16.7C200.995 16.7 201.195 16.72 201.421 16.76C201.661 16.7867 201.841 16.8067 201.961 16.82C201.948 16.4733 201.868 16.1467 201.721 15.84C201.588 15.5333 201.415 15.24 201.201 14.96C200.988 14.6667 200.788 14.4133 200.601 14.2C200.188 14.9867 199.775 15.64 199.361 16.16C198.961 16.68 198.521 17.1733 198.041 17.64C197.801 17.88 197.548 18 197.281 18C197.068 18 196.895 17.9267 196.761 17.78C196.628 17.62 196.561 17.4267 196.561 17.2C196.561 16.9333 196.655 16.6867 196.841 16.46L197.101 16.14C197.835 15.2333 198.388 14.4867 198.761 13.9C199.001 13.5133 199.241 13.0533 199.481 12.52C199.735 11.9867 200.061 11.26 200.461 10.34C200.715 9.75333 201.241 9.46 202.041 9.46C202.415 9.46 202.675 9.49333 202.821 9.56C202.968 9.62667 203.041 9.73333 203.041 9.88C203.041 9.96 203.015 10.0867 202.961 10.26C202.908 10.4333 202.835 10.6067 202.741 10.78C202.501 11.26 202.381 11.6667 202.381 12C202.381 12.2 202.448 12.42 202.581 12.66C202.728 12.9 202.948 13.2 203.241 13.56C203.668 14.12 203.988 14.6 204.201 15C204.428 15.3867 204.541 15.8133 204.541 16.28C204.541 16.84 204.408 17.3733 204.141 17.88C203.888 18.3733 203.528 18.7733 203.061 19.08C202.595 19.3867 202.061 19.54 201.461 19.54ZM222.125 15.16C222.432 15.16 222.585 15.3667 222.585 15.78C222.585 16.3 222.465 16.7067 222.225 17C221.999 17.2933 221.685 17.44 221.285 17.44L220.545 17.42C220.412 17.4067 220.219 17.4 219.965 17.4C220.019 18.16 220.045 18.92 220.045 19.68C220.045 21.6933 219.779 23.4467 219.245 24.94C218.725 26.4333 217.905 27.18 216.785 27.18C216.025 27.18 215.445 26.74 215.045 25.86C214.659 24.9933 214.465 23.9333 214.465 22.68C214.465 21.12 214.639 19.58 214.985 18.06C214.532 18.7533 213.939 19.1 213.205 19.1C212.472 19.1 211.859 18.7933 211.365 18.18C210.885 17.5667 210.645 16.7733 210.645 15.8C210.645 14.7467 210.892 13.7467 211.385 12.8C211.892 11.8533 212.559 11.0933 213.385 10.52C214.225 9.93333 215.119 9.64 216.065 9.64C216.385 9.64 216.632 9.74667 216.805 9.96C216.925 9.53333 217.105 9.24667 217.345 9.1C217.585 8.95333 217.919 8.88 218.345 8.88C218.799 8.88 219.099 8.94667 219.245 9.08C219.405 9.21333 219.479 9.40667 219.465 9.66C219.465 9.82 219.379 10.1933 219.205 10.78C219.045 11.3533 218.939 11.7333 218.885 11.92C218.672 12.6667 218.439 13.4933 218.185 14.4C217.945 15.3067 217.752 16.1333 217.605 16.88C217.179 19.0133 216.965 20.9 216.965 22.54C216.965 23.1533 217.012 23.6733 217.105 24.1C217.212 24.54 217.345 24.76 217.505 24.76C217.639 24.76 217.779 24.5333 217.925 24.08C218.085 23.6267 218.219 23.02 218.325 22.26C218.432 21.5 218.485 20.6933 218.485 19.84C218.485 18.8267 218.439 17.9267 218.345 17.14C218.332 17.0733 218.325 16.9667 218.325 16.82C218.325 16.38 218.432 16.0133 218.645 15.72C218.872 15.4267 219.185 15.28 219.585 15.28C219.639 15.28 220.145 15.26 221.105 15.22C221.505 15.18 221.845 15.16 222.125 15.16ZM214.005 17.08C214.312 17.08 214.605 16.8933 214.885 16.52C215.165 16.1333 215.365 15.6733 215.485 15.14L216.345 11.5C215.759 11.5133 215.219 11.72 214.725 12.12C214.245 12.52 213.859 13.0533 213.565 13.72C213.285 14.3733 213.145 15.0667 213.145 15.8C213.145 16.2133 213.219 16.5333 213.365 16.76C213.525 16.9733 213.739 17.08 214.005 17.08ZM222.945 19.1C222.345 19.1 221.852 18.8267 221.465 18.28C221.092 17.72 220.905 17.0267 220.905 16.2C220.905 15.2 220.972 14.2867 221.105 13.46C221.239 12.62 221.459 11.7333 221.765 10.8C221.899 10.4 222.085 10.1133 222.325 9.94C222.565 9.76667 222.945 9.68 223.465 9.68C223.759 9.68 223.959 9.72667 224.065 9.82C224.185 9.91333 224.245 10.0533 224.245 10.24C224.245 10.3467 224.172 10.7067 224.025 11.32C223.892 11.8133 223.785 12.26 223.705 12.66C223.439 14.06 223.305 14.9933 223.305 15.46C223.305 15.74 223.339 15.94 223.405 16.06C223.472 16.1667 223.579 16.22 223.725 16.22C223.925 16.22 224.172 16.02 224.465 15.62C224.772 15.22 225.092 14.6133 225.425 13.8C225.772 12.9867 226.105 11.9867 226.425 10.8C226.532 10.4 226.692 10.1133 226.905 9.94C227.132 9.76667 227.465 9.68 227.905 9.68C228.212 9.68 228.425 9.72 228.545 9.8C228.665 9.86667 228.725 10 228.725 10.2C228.725 10.5333 228.559 11.4467 228.225 12.94C227.852 14.6467 227.665 15.7 227.665 16.1C227.665 16.3533 227.719 16.5533 227.825 16.7C227.932 16.8333 228.072 16.9 228.245 16.9C228.512 16.9 228.825 16.74 229.185 16.42C229.559 16.0867 230.052 15.5533 230.665 14.82C230.825 14.6333 231.005 14.54 231.205 14.54C231.379 14.54 231.512 14.62 231.605 14.78C231.712 14.94 231.765 15.16 231.765 15.44C231.765 15.9733 231.639 16.3867 231.385 16.68C230.812 17.3867 230.192 17.9667 229.525 18.42C228.872 18.8733 228.125 19.1 227.285 19.1C226.645 19.1 226.172 18.8533 225.865 18.36C225.572 17.8667 225.425 17.1733 225.425 16.28C225.199 17.1867 224.859 17.8867 224.405 18.38C223.952 18.86 223.465 19.1 222.945 19.1ZM232.764 8.36C232.204 8.36 231.784 8.23333 231.504 7.98C231.224 7.71333 231.084 7.34667 231.084 6.88C231.084 6.41333 231.264 6.02667 231.624 5.72C231.997 5.4 232.457 5.24 233.004 5.24C233.497 5.24 233.897 5.36 234.204 5.6C234.51 5.84 234.664 6.18 234.664 6.62C234.664 7.15333 234.49 7.58 234.144 7.9C233.797 8.20667 233.337 8.36 232.764 8.36ZM232.604 19.1C231.737 19.1 231.104 18.7933 230.704 18.18C230.317 17.5667 230.124 16.7533 230.124 15.74C230.124 15.14 230.197 14.3733 230.344 13.44C230.504 12.4933 230.704 11.6133 230.944 10.8C231.064 10.3733 231.224 10.08 231.424 9.92C231.624 9.76 231.944 9.68 232.384 9.68C233.064 9.68 233.404 9.90667 233.404 10.36C233.404 10.6933 233.277 11.4667 233.024 12.68C232.704 14.1467 232.544 15.14 232.544 15.66C232.544 16.06 232.597 16.3667 232.704 16.58C232.81 16.7933 232.99 16.9 233.244 16.9C233.484 16.9 233.784 16.7333 234.144 16.4C234.504 16.0667 234.984 15.54 235.584 14.82C235.744 14.6333 235.924 14.54 236.124 14.54C236.297 14.54 236.43 14.62 236.524 14.78C236.63 14.94 236.684 15.16 236.684 15.44C236.684 15.9733 236.557 16.3867 236.304 16.68C234.984 18.2933 233.75 19.1 232.604 19.1ZM238.785 19.54C238.092 19.54 237.559 19.38 237.185 19.06C236.825 18.74 236.645 18.38 236.645 17.98C236.645 17.6333 236.772 17.3333 237.025 17.08C237.279 16.8267 237.652 16.7 238.145 16.7C238.319 16.7 238.519 16.72 238.745 16.76C238.985 16.7867 239.165 16.8067 239.285 16.82C239.272 16.4733 239.192 16.1467 239.045 15.84C238.912 15.5333 238.739 15.24 238.525 14.96C238.312 14.6667 238.112 14.4133 237.925 14.2C237.512 14.9867 237.099 15.64 236.685 16.16C236.285 16.68 235.845 17.1733 235.365 17.64C235.125 17.88 234.872 18 234.605 18C234.392 18 234.219 17.9267 234.085 17.78C233.952 17.62 233.885 17.4267 233.885 17.2C233.885 16.9333 233.979 16.6867 234.165 16.46L234.425 16.14C235.159 15.2333 235.712 14.4867 236.085 13.9C236.325 13.5133 236.565 13.0533 236.805 12.52C237.059 11.9867 237.385 11.26 237.785 10.34C238.039 9.75333 238.565 9.46 239.365 9.46C239.739 9.46 239.999 9.49333 240.145 9.56C240.292 9.62667 240.365 9.73333 240.365 9.88C240.365 9.96 240.339 10.0867 240.285 10.26C240.232 10.4333 240.159 10.6067 240.065 10.78C239.825 11.26 239.705 11.6667 239.705 12C239.705 12.2 239.772 12.42 239.905 12.66C240.052 12.9 240.272 13.2 240.565 13.56C240.992 14.12 241.312 14.6 241.525 15C241.752 15.3867 241.865 15.8133 241.865 16.28C241.865 16.84 241.732 17.3733 241.465 17.88C241.212 18.3733 240.852 18.7733 240.385 19.08C239.919 19.3867 239.385 19.54 238.785 19.54Z" fill="black"/>
<path d="M286.334 20.1C285.414 20.1 284.581 19.8733 283.834 19.42C283.101 18.9667 282.521 18.3133 282.094 17.46C281.667 16.5933 281.454 15.5733 281.454 14.4C281.454 12.3733 281.887 10.5 282.754 8.78C283.621 7.04667 284.901 5.66 286.594 4.62C288.287 3.56667 290.321 3.04 292.694 3.04C293.307 3.04 293.961 3.08667 294.654 3.18C295.361 3.27333 296.001 3.41333 296.574 3.6C296.947 3.70667 297.134 3.97333 297.134 4.4C297.134 4.74667 297.001 5.07333 296.734 5.38C296.481 5.68667 296.181 5.84 295.834 5.84C295.727 5.84 295.647 5.83333 295.594 5.82C294.901 5.66 294.307 5.54667 293.814 5.48C293.321 5.4 292.801 5.36 292.254 5.36C290.561 5.36 289.121 5.77333 287.934 6.6C286.747 7.41333 285.861 8.49333 285.274 9.84C284.687 11.1867 284.394 12.64 284.394 14.2C284.394 15.3333 284.614 16.2133 285.054 16.84C285.507 17.4533 286.094 17.76 286.814 17.76C287.627 17.76 288.341 17.4267 288.954 16.76C289.567 16.0933 290.127 15.0133 290.634 13.52C291.141 12.0267 291.641 10 292.134 7.44C292.214 7.06667 292.374 6.81333 292.614 6.68C292.854 6.54667 293.174 6.48 293.574 6.48C294.521 6.48 294.994 6.78667 294.994 7.4C294.994 7.50667 294.974 7.64 294.934 7.8C294.587 9.09333 294.267 10.5267 293.974 12.1C293.694 13.66 293.554 14.8467 293.554 15.66C293.554 16.38 293.661 16.9067 293.874 17.24C294.087 17.56 294.414 17.72 294.854 17.72C295.281 17.72 295.687 17.58 296.074 17.3C296.461 17.0067 296.947 16.5133 297.534 15.82C297.694 15.6333 297.874 15.54 298.074 15.54C298.247 15.54 298.381 15.62 298.474 15.78C298.581 15.94 298.634 16.16 298.634 16.44C298.634 16.96 298.507 17.3733 298.254 17.68C297.601 18.4667 296.961 19.0667 296.334 19.48C295.707 19.8933 294.941 20.1 294.034 20.1C293.101 20.1 292.347 19.8333 291.774 19.3C291.201 18.7533 290.841 17.9867 290.694 17C289.707 19.0667 288.254 20.1 286.334 20.1ZM305.937 15.54C306.11 15.54 306.243 15.62 306.337 15.78C306.443 15.94 306.497 16.16 306.497 16.44C306.497 16.9733 306.37 17.3867 306.117 17.68C305.623 18.28 304.923 18.8333 304.017 19.34C303.123 19.8467 302.163 20.1 301.137 20.1C299.737 20.1 298.65 19.72 297.877 18.96C297.103 18.2 296.717 17.16 296.717 15.84C296.717 14.92 296.91 14.0667 297.297 13.28C297.683 12.48 298.217 11.8467 298.897 11.38C299.59 10.9133 300.37 10.68 301.237 10.68C302.01 10.68 302.63 10.9133 303.097 11.38C303.563 11.8333 303.797 12.4533 303.797 13.24C303.797 14.16 303.463 14.9533 302.797 15.62C302.143 16.2733 301.03 16.7933 299.457 17.18C299.79 17.7933 300.423 18.1 301.357 18.1C301.957 18.1 302.637 17.8933 303.397 17.48C304.17 17.0533 304.837 16.5 305.397 15.82C305.557 15.6333 305.737 15.54 305.937 15.54ZM300.897 12.64C300.403 12.64 299.983 12.9267 299.637 13.5C299.303 14.0733 299.137 14.7667 299.137 15.58V15.62C299.923 15.4333 300.543 15.1533 300.997 14.78C301.45 14.4067 301.677 13.9733 301.677 13.48C301.677 13.2267 301.603 13.0267 301.457 12.88C301.323 12.72 301.137 12.64 300.897 12.64ZM306.288 20.1C305.782 20.1 305.422 19.8333 305.208 19.3C305.008 18.7667 304.908 17.9133 304.908 16.74C304.908 15.0067 305.155 13.36 305.648 11.8C305.768 11.4133 305.962 11.1333 306.228 10.96C306.508 10.7733 306.895 10.68 307.388 10.68C307.655 10.68 307.842 10.7133 307.948 10.78C308.055 10.8467 308.108 10.9733 308.108 11.16C308.108 11.3733 308.008 11.8533 307.808 12.6C307.675 13.1333 307.568 13.6 307.488 14C307.408 14.4 307.342 14.8933 307.288 15.48C307.728 14.3333 308.222 13.4 308.768 12.68C309.315 11.96 309.848 11.4467 310.368 11.14C310.902 10.8333 311.388 10.68 311.828 10.68C312.695 10.68 313.128 11.1133 313.128 11.98C313.128 12.5 312.982 13.44 312.688 14.8C312.435 15.96 312.308 16.7267 312.308 17.1C312.308 17.6333 312.502 17.9 312.888 17.9C313.155 17.9 313.468 17.74 313.828 17.42C314.202 17.0867 314.695 16.5533 315.308 15.82C315.468 15.6333 315.648 15.54 315.848 15.54C316.022 15.54 316.155 15.62 316.248 15.78C316.355 15.94 316.408 16.16 316.408 16.44C316.408 16.9733 316.282 17.3867 316.028 17.68C315.455 18.3867 314.835 18.9667 314.168 19.42C313.515 19.8733 312.768 20.1 311.928 20.1C311.248 20.1 310.735 19.9067 310.388 19.52C310.042 19.12 309.868 18.5467 309.868 17.8C309.868 17.4267 309.962 16.76 310.148 15.8C310.322 14.96 310.408 14.38 310.408 14.06C310.408 13.8467 310.335 13.74 310.188 13.74C310.015 13.74 309.768 13.9667 309.448 14.42C309.142 14.86 308.822 15.4467 308.488 16.18C308.168 16.9133 307.908 17.6867 307.708 18.5C307.562 19.1267 307.388 19.5533 307.188 19.78C307.002 19.9933 306.702 20.1 306.288 20.1ZM323.71 15.54C323.883 15.54 324.017 15.62 324.11 15.78C324.217 15.94 324.27 16.16 324.27 16.44C324.27 16.9733 324.143 17.3867 323.89 17.68C323.397 18.28 322.697 18.8333 321.79 19.34C320.897 19.8467 319.937 20.1 318.91 20.1C317.51 20.1 316.423 19.72 315.65 18.96C314.877 18.2 314.49 17.16 314.49 15.84C314.49 14.92 314.683 14.0667 315.07 13.28C315.457 12.48 315.99 11.8467 316.67 11.38C317.363 10.9133 318.143 10.68 319.01 10.68C319.783 10.68 320.403 10.9133 320.87 11.38C321.337 11.8333 321.57 12.4533 321.57 13.24C321.57 14.16 321.237 14.9533 320.57 15.62C319.917 16.2733 318.803 16.7933 317.23 17.18C317.563 17.7933 318.197 18.1 319.13 18.1C319.73 18.1 320.41 17.8933 321.17 17.48C321.943 17.0533 322.61 16.5 323.17 15.82C323.33 15.6333 323.51 15.54 323.71 15.54ZM318.67 12.64C318.177 12.64 317.757 12.9267 317.41 13.5C317.077 14.0733 316.91 14.7667 316.91 15.58V15.62C317.697 15.4333 318.317 15.1533 318.77 14.78C319.223 14.4067 319.45 13.9733 319.45 13.48C319.45 13.2267 319.377 13.0267 319.23 12.88C319.097 12.72 318.91 12.64 318.67 12.64ZM325.004 20.1C324.177 20.1 323.517 19.8 323.024 19.2C322.531 18.6 322.284 17.8133 322.284 16.84C322.284 15.7733 322.531 14.7667 323.024 13.82C323.517 12.86 324.171 12.0933 324.984 11.52C325.811 10.9333 326.684 10.64 327.604 10.64C327.897 10.64 328.091 10.7 328.184 10.82C328.291 10.9267 328.377 11.1267 328.444 11.42C328.724 11.3667 329.017 11.34 329.324 11.34C329.977 11.34 330.304 11.5733 330.304 12.04C330.304 12.32 330.204 12.9867 330.004 14.04C329.697 15.5733 329.544 16.64 329.544 17.24C329.544 17.44 329.591 17.6 329.684 17.72C329.791 17.84 329.924 17.9 330.084 17.9C330.337 17.9 330.644 17.74 331.004 17.42C331.364 17.0867 331.851 16.5533 332.464 15.82C332.624 15.6333 332.804 15.54 333.004 15.54C333.177 15.54 333.311 15.62 333.404 15.78C333.511 15.94 333.564 16.16 333.564 16.44C333.564 16.9733 333.437 17.3867 333.184 17.68C332.637 18.36 332.057 18.9333 331.444 19.4C330.831 19.8667 330.237 20.1 329.664 20.1C329.224 20.1 328.817 19.9533 328.444 19.66C328.084 19.3533 327.811 18.94 327.624 18.42C326.931 19.54 326.057 20.1 325.004 20.1ZM325.724 18.08C326.017 18.08 326.297 17.9067 326.564 17.56C326.831 17.2133 327.024 16.7533 327.144 16.18L327.884 12.5C327.324 12.5133 326.804 12.7267 326.324 13.14C325.857 13.54 325.484 14.0733 325.204 14.74C324.924 15.4067 324.784 16.1133 324.784 16.86C324.784 17.2733 324.864 17.58 325.024 17.78C325.197 17.98 325.431 18.08 325.724 18.08ZM333.359 20.1C332.852 20.1 332.492 19.8333 332.279 19.3C332.079 18.7667 331.979 17.9133 331.979 16.74C331.979 15.0067 332.225 13.36 332.719 11.8C332.839 11.4133 333.032 11.1333 333.299 10.96C333.579 10.7733 333.965 10.68 334.459 10.68C334.725 10.68 334.912 10.7133 335.019 10.78C335.125 10.8467 335.179 10.9733 335.179 11.16C335.179 11.3733 335.079 11.8533 334.879 12.6C334.745 13.1333 334.639 13.6 334.559 14C334.479 14.4 334.412 14.8933 334.359 15.48C334.799 14.3333 335.292 13.4 335.839 12.68C336.385 11.96 336.919 11.4467 337.439 11.14C337.972 10.8333 338.459 10.68 338.899 10.68C339.325 10.68 339.645 10.7933 339.859 11.02C340.085 11.2333 340.199 11.5533 340.199 11.98C340.199 12.3267 340.125 12.98 339.979 13.94C339.845 14.7533 339.739 15.5267 339.659 16.26C339.579 16.98 339.539 17.7867 339.539 18.68C339.539 19.1867 339.432 19.5533 339.219 19.78C339.019 19.9933 338.685 20.1 338.219 20.1C337.779 20.1 337.459 19.9867 337.259 19.76C337.059 19.5333 336.959 19.1933 336.959 18.74C336.959 18.2067 337.052 17.3267 337.239 16.1C337.399 15.0333 337.479 14.3533 337.479 14.06C337.479 13.8467 337.405 13.74 337.259 13.74C337.085 13.74 336.839 13.9667 336.519 14.42C336.212 14.86 335.892 15.4467 335.559 16.18C335.239 16.9133 334.979 17.6867 334.779 18.5C334.632 19.1267 334.459 19.5533 334.259 19.78C334.072 19.9933 333.772 20.1 333.359 20.1Z" fill="black"/>
<path d="M435.403 16.36C435.603 16.28 435.769 16.24 435.903 16.24C436.116 16.24 436.276 16.32 436.383 16.48C436.489 16.64 436.543 16.8467 436.543 17.1C436.543 17.5 436.443 17.84 436.243 18.12C436.056 18.4 435.729 18.6533 435.263 18.88C434.476 19.2533 433.456 19.5533 432.203 19.78C430.949 19.9933 429.716 20.1 428.503 20.1C426.823 20.1 425.416 19.9133 424.283 19.54C423.149 19.1533 422.303 18.6267 421.743 17.96C421.196 17.2933 420.923 16.54 420.923 15.7C420.923 14.5533 421.289 13.58 422.023 12.78C422.769 11.9667 423.863 11.38 425.303 11.02C424.516 10.7933 423.909 10.3933 423.483 9.82C423.069 9.24667 422.863 8.60667 422.863 7.9C422.863 6.94 423.163 6.09333 423.763 5.36C424.376 4.61333 425.196 4.04 426.223 3.64C427.249 3.24 428.376 3.04 429.603 3.04C431.256 3.04 432.496 3.4 433.323 4.12C434.149 4.82667 434.563 5.74667 434.563 6.88C434.563 7.66667 434.416 8.30667 434.123 8.8C433.843 9.28 433.436 9.52 432.903 9.52C432.529 9.52 432.236 9.44 432.023 9.28C431.809 9.10667 431.703 8.85333 431.703 8.52C431.703 8.29333 431.736 8.04667 431.803 7.78C431.869 7.34 431.903 7.04 431.903 6.88C431.903 6.4 431.723 6.01333 431.363 5.72C431.003 5.41333 430.403 5.26 429.563 5.26C428.429 5.26 427.523 5.5 426.843 5.98C426.163 6.46 425.823 7.10667 425.823 7.92C425.823 8.54667 426.076 9.06667 426.583 9.48C427.103 9.88 427.943 10.1 429.103 10.14C429.396 10.1533 429.603 10.22 429.723 10.34C429.843 10.46 429.903 10.66 429.903 10.94C429.903 11.82 429.503 12.2667 428.703 12.28C427.596 12.3067 426.676 12.46 425.943 12.74C425.223 13.02 424.696 13.38 424.363 13.82C424.043 14.2467 423.883 14.7067 423.883 15.2C423.883 16.0267 424.269 16.6533 425.043 17.08C425.816 17.4933 427.043 17.7 428.723 17.7C429.829 17.7 430.996 17.5733 432.223 17.32C433.463 17.0533 434.523 16.7333 435.403 16.36ZM444.823 15.58C444.996 15.58 445.13 15.6667 445.223 15.84C445.33 16 445.383 16.2067 445.383 16.46C445.383 16.7667 445.336 17.0067 445.243 17.18C445.15 17.3533 445.003 17.5067 444.803 17.64C443.656 18.4133 442.816 18.9867 442.283 19.36L441.003 20.22C440.496 22.98 439.83 25.1467 439.003 26.72C438.19 28.3067 437.15 29.1 435.883 29.1C435.203 29.1 434.65 28.8867 434.223 28.46C433.796 28.0467 433.583 27.5 433.583 26.82C433.583 25.8733 433.956 24.8533 434.703 23.76C435.45 22.68 436.85 21.3467 438.903 19.76L439.023 18.98C438.796 19.34 438.496 19.62 438.123 19.82C437.763 20.0067 437.403 20.1 437.043 20.1C436.216 20.1 435.556 19.8 435.063 19.2C434.57 18.6 434.323 17.8133 434.323 16.84C434.323 15.7733 434.57 14.7667 435.063 13.82C435.556 12.86 436.21 12.0933 437.023 11.52C437.85 10.9333 438.723 10.64 439.643 10.64C439.936 10.64 440.13 10.7 440.223 10.82C440.33 10.9267 440.416 11.1267 440.483 11.42C440.736 11.3667 441.03 11.34 441.363 11.34C441.696 11.34 441.93 11.3933 442.063 11.5C442.21 11.5933 442.283 11.7867 442.283 12.08C442.283 12.24 442.276 12.3667 442.263 12.46C442.21 12.8733 442.043 13.92 441.763 15.6C441.71 15.92 441.65 16.2733 441.583 16.66C441.53 17.0333 441.47 17.4333 441.403 17.86C442.43 17.06 443.416 16.3533 444.363 15.74C444.536 15.6333 444.69 15.58 444.823 15.58ZM437.763 18.08C438.07 18.08 438.363 17.8933 438.643 17.52C438.923 17.1467 439.123 16.6133 439.243 15.92L439.883 12.5C439.336 12.5133 438.83 12.7267 438.363 13.14C437.896 13.54 437.523 14.0733 437.243 14.74C436.963 15.4067 436.823 16.1133 436.823 16.86C436.823 17.2733 436.903 17.58 437.063 17.78C437.236 17.98 437.47 18.08 437.763 18.08ZM436.103 27.16C436.436 27.16 436.81 26.76 437.223 25.96C437.65 25.16 438.056 23.8867 438.443 22.14C437.416 23.02 436.676 23.8133 436.223 24.52C435.77 25.2267 435.543 25.8467 435.543 26.38C435.543 26.6067 435.583 26.7933 435.663 26.94C435.756 27.0867 435.903 27.16 436.103 27.16ZM453.073 15.54C453.247 15.54 453.38 15.62 453.473 15.78C453.58 15.94 453.633 16.16 453.633 16.44C453.633 16.9733 453.507 17.3867 453.253 17.68C452.76 18.28 452.06 18.8333 451.153 19.34C450.26 19.8467 449.3 20.1 448.273 20.1C446.873 20.1 445.787 19.72 445.013 18.96C444.24 18.2 443.853 17.16 443.853 15.84C443.853 14.92 444.047 14.0667 444.433 13.28C444.82 12.48 445.353 11.8467 446.033 11.38C446.727 10.9133 447.507 10.68 448.373 10.68C449.147 10.68 449.767 10.9133 450.233 11.38C450.7 11.8333 450.933 12.4533 450.933 13.24C450.933 14.16 450.6 14.9533 449.933 15.62C449.28 16.2733 448.167 16.7933 446.593 17.18C446.927 17.7933 447.56 18.1 448.493 18.1C449.093 18.1 449.773 17.8933 450.533 17.48C451.307 17.0533 451.973 16.5 452.533 15.82C452.693 15.6333 452.873 15.54 453.073 15.54ZM448.033 12.64C447.54 12.64 447.12 12.9267 446.773 13.5C446.44 14.0733 446.273 14.7667 446.273 15.58V15.62C447.06 15.4333 447.68 15.1533 448.133 14.78C448.587 14.4067 448.813 13.9733 448.813 13.48C448.813 13.2267 448.74 13.0267 448.593 12.88C448.46 12.72 448.273 12.64 448.033 12.64ZM455.725 20.54C455.032 20.54 454.498 20.38 454.125 20.06C453.765 19.74 453.585 19.38 453.585 18.98C453.585 18.6333 453.712 18.3333 453.965 18.08C454.218 17.8267 454.592 17.7 455.085 17.7C455.258 17.7 455.458 17.72 455.685 17.76C455.925 17.7867 456.105 17.8067 456.225 17.82C456.212 17.4733 456.132 17.1467 455.985 16.84C455.852 16.5333 455.678 16.24 455.465 15.96C455.252 15.6667 455.052 15.4133 454.865 15.2C454.452 15.9867 454.038 16.64 453.625 17.16C453.225 17.68 452.785 18.1733 452.305 18.64C452.065 18.88 451.812 19 451.545 19C451.332 19 451.158 18.9267 451.025 18.78C450.892 18.62 450.825 18.4267 450.825 18.2C450.825 17.9333 450.918 17.6867 451.105 17.46L451.365 17.14C452.098 16.2333 452.652 15.4867 453.025 14.9C453.252 14.5133 453.518 14 453.825 13.36C454.132 12.7067 454.432 12.0333 454.725 11.34C454.978 10.7533 455.505 10.46 456.305 10.46C456.678 10.46 456.938 10.4933 457.085 10.56C457.232 10.6267 457.305 10.7333 457.305 10.88C457.305 10.96 457.278 11.0867 457.225 11.26C457.172 11.4333 457.098 11.6067 457.005 11.78C456.765 12.26 456.645 12.6667 456.645 13C456.645 13.2 456.712 13.42 456.845 13.66C456.992 13.9 457.212 14.2 457.505 14.56C457.932 15.12 458.252 15.6 458.465 16C458.692 16.3867 458.805 16.8133 458.805 17.28C458.805 17.4133 458.792 17.6 458.765 17.84C459.418 17.5867 460.185 16.9133 461.065 15.82C461.225 15.6333 461.405 15.54 461.605 15.54C461.778 15.54 461.912 15.62 462.005 15.78C462.112 15.94 462.165 16.16 462.165 16.44C462.165 16.9467 462.038 17.36 461.785 17.68C461.118 18.5067 460.478 19.0733 459.865 19.38C459.265 19.6733 458.518 19.8333 457.625 19.86C457.092 20.3133 456.458 20.54 455.725 20.54ZM469.46 15.54C469.633 15.54 469.767 15.62 469.86 15.78C469.967 15.94 470.02 16.16 470.02 16.44C470.02 16.9733 469.893 17.3867 469.64 17.68C469.067 18.3867 468.44 18.9667 467.76 19.42C467.08 19.8733 466.3 20.1 465.42 20.1C462.7 20.1 461.34 18.1867 461.34 14.36C461.34 13.7733 461.36 13.18 461.4 12.58H460.62C460.22 12.58 459.947 12.5067 459.8 12.36C459.667 12.2133 459.6 11.98 459.6 11.66C459.6 10.9133 459.9 10.54 460.5 10.54H461.64C461.867 9.07333 462.213 7.73333 462.68 6.52C463.147 5.30667 463.707 4.34 464.36 3.62C465.027 2.9 465.74 2.54 466.5 2.54C467.06 2.54 467.5 2.78667 467.82 3.28C468.14 3.77333 468.3 4.39333 468.3 5.14C468.3 7.20667 467.433 9.00667 465.7 10.54H467.94C468.153 10.54 468.307 10.5867 468.4 10.68C468.493 10.7733 468.54 10.9467 468.54 11.2C468.54 12.12 467.787 12.58 466.28 12.58H463.84C463.813 13.2467 463.8 13.7667 463.8 14.14C463.8 15.5267 463.96 16.5 464.28 17.06C464.613 17.62 465.133 17.9 465.84 17.9C466.413 17.9 466.92 17.7267 467.36 17.38C467.8 17.0333 468.32 16.5133 468.92 15.82C469.08 15.6333 469.26 15.54 469.46 15.54ZM465.96 4.46C465.76 4.46 465.533 4.71333 465.28 5.22C465.04 5.71333 464.807 6.40667 464.58 7.3C464.367 8.18 464.187 9.16 464.04 10.24C464.827 9.56 465.413 8.8 465.8 7.96C466.2 7.10667 466.4 6.33333 466.4 5.64C466.4 4.85333 466.253 4.46 465.96 4.46ZM470.852 20.1C470.025 20.1 469.365 19.8 468.872 19.2C468.378 18.6 468.132 17.8133 468.132 16.84C468.132 15.7733 468.378 14.7667 468.872 13.82C469.365 12.86 470.018 12.0933 470.832 11.52C471.658 10.9333 472.532 10.64 473.452 10.64C473.745 10.64 473.938 10.7 474.032 10.82C474.138 10.9267 474.225 11.1267 474.292 11.42C474.572 11.3667 474.865 11.34 475.172 11.34C475.825 11.34 476.152 11.5733 476.152 12.04C476.152 12.32 476.052 12.9867 475.852 14.04C475.545 15.5733 475.392 16.64 475.392 17.24C475.392 17.44 475.438 17.6 475.532 17.72C475.638 17.84 475.772 17.9 475.932 17.9C476.185 17.9 476.492 17.74 476.852 17.42C477.212 17.0867 477.698 16.5533 478.312 15.82C478.472 15.6333 478.652 15.54 478.852 15.54C479.025 15.54 479.158 15.62 479.252 15.78C479.358 15.94 479.412 16.16 479.412 16.44C479.412 16.9733 479.285 17.3867 479.032 17.68C478.485 18.36 477.905 18.9333 477.292 19.4C476.678 19.8667 476.085 20.1 475.512 20.1C475.072 20.1 474.665 19.9533 474.292 19.66C473.932 19.3533 473.658 18.94 473.472 18.42C472.778 19.54 471.905 20.1 470.852 20.1ZM471.572 18.08C471.865 18.08 472.145 17.9067 472.412 17.56C472.678 17.2133 472.872 16.7533 472.992 16.18L473.732 12.5C473.172 12.5133 472.652 12.7267 472.172 13.14C471.705 13.54 471.332 14.0733 471.052 14.74C470.772 15.4067 470.632 16.1133 470.632 16.86C470.632 17.2733 470.712 17.58 470.872 17.78C471.045 17.98 471.278 18.08 471.572 18.08ZM481.506 20.54C480.813 20.54 480.28 20.38 479.906 20.06C479.546 19.74 479.366 19.38 479.366 18.98C479.366 18.6333 479.493 18.3333 479.746 18.08C480 17.8267 480.373 17.7 480.866 17.7C481.04 17.7 481.24 17.72 481.466 17.76C481.706 17.7867 481.886 17.8067 482.006 17.82C481.993 17.4733 481.913 17.1467 481.766 16.84C481.633 16.5333 481.46 16.24 481.246 15.96C481.033 15.6667 480.833 15.4133 480.646 15.2C480.233 15.9867 479.82 16.64 479.406 17.16C479.006 17.68 478.566 18.1733 478.086 18.64C477.846 18.88 477.593 19 477.326 19C477.113 19 476.94 18.9267 476.806 18.78C476.673 18.62 476.606 18.4267 476.606 18.2C476.606 17.9333 476.7 17.6867 476.886 17.46L477.146 17.14C477.88 16.2333 478.433 15.4867 478.806 14.9C479.046 14.5133 479.286 14.0533 479.526 13.52C479.78 12.9867 480.106 12.26 480.506 11.34C480.76 10.7533 481.286 10.46 482.086 10.46C482.46 10.46 482.72 10.4933 482.866 10.56C483.013 10.6267 483.086 10.7333 483.086 10.88C483.086 10.96 483.06 11.0867 483.006 11.26C482.953 11.4333 482.88 11.6067 482.786 11.78C482.546 12.26 482.426 12.6667 482.426 13C482.426 13.2 482.493 13.42 482.626 13.66C482.773 13.9 482.993 14.2 483.286 14.56C483.713 15.12 484.033 15.6 484.246 16C484.473 16.3867 484.586 16.8133 484.586 17.28C484.586 17.84 484.453 18.3733 484.186 18.88C483.933 19.3733 483.573 19.7733 483.106 20.08C482.64 20.3867 482.106 20.54 481.506 20.54Z" fill="black"/>
<path d="M579.555 21.92C579.689 21.92 579.789 21.9867 579.855 22.12C579.935 22.2667 579.975 22.4533 579.975 22.68C579.975 23.1067 579.862 23.5267 579.635 23.94C579.182 24.7667 578.582 25.4 577.835 25.84C577.102 26.2933 576.349 26.52 575.575 26.52C574.789 26.52 574.129 26.3933 573.595 26.14C573.062 25.9 572.609 25.5333 572.235 25.04C571.862 24.56 571.502 23.92 571.155 23.12C570.795 22.2933 570.495 21.6733 570.255 21.26C570.029 20.86 569.789 20.5667 569.535 20.38C569.282 20.1933 568.955 20.06 568.555 19.98C567.075 19.6867 565.882 18.9533 564.975 17.78C564.082 16.6067 563.635 15.0933 563.635 13.24C563.635 11.2133 564.002 9.42667 564.735 7.88C565.482 6.33333 566.489 5.14 567.755 4.3C569.035 3.46 570.449 3.04 571.995 3.04C573.182 3.04 574.249 3.30667 575.195 3.84C576.155 4.37333 576.915 5.16 577.475 6.2C578.035 7.22667 578.315 8.46 578.315 9.9C578.315 11.58 578.062 13.0933 577.555 14.44C577.049 15.7867 576.349 16.9067 575.455 17.8C574.562 18.6933 573.535 19.3267 572.375 19.7C572.709 19.8867 572.995 20.16 573.235 20.52C573.489 20.88 573.755 21.4 574.035 22.08C574.342 22.8267 574.669 23.36 575.015 23.68C575.375 24 575.815 24.16 576.335 24.16C576.775 24.16 577.202 24.0067 577.615 23.7C578.029 23.4067 578.495 22.92 579.015 22.24C579.175 22.0267 579.355 21.92 579.555 21.92ZM570.155 17.74C571.195 17.74 572.109 17.42 572.895 16.78C573.695 16.14 574.309 15.2533 574.735 14.12C575.162 12.9733 575.375 11.68 575.375 10.24C575.375 8.65333 575.042 7.45333 574.375 6.64C573.709 5.81333 572.849 5.4 571.795 5.4C570.782 5.4 569.875 5.72667 569.075 6.38C568.289 7.02 567.675 7.90667 567.235 9.04C566.795 10.1733 566.575 11.46 566.575 12.9C566.575 14.4867 566.909 15.6933 567.575 16.52C568.242 17.3333 569.102 17.74 570.155 17.74ZM581.488 20.1C580.888 20.1 580.395 19.8267 580.008 19.28C579.635 18.72 579.448 18.0267 579.448 17.2C579.448 16.2 579.515 15.2867 579.648 14.46C579.782 13.62 580.002 12.7333 580.308 11.8C580.442 11.4 580.628 11.1133 580.868 10.94C581.108 10.7667 581.488 10.68 582.008 10.68C582.302 10.68 582.502 10.7267 582.608 10.82C582.728 10.9133 582.788 11.0533 582.788 11.24C582.788 11.3467 582.715 11.7067 582.568 12.32C582.435 12.8133 582.328 13.26 582.248 13.66C581.982 15.06 581.848 15.9933 581.848 16.46C581.848 16.74 581.882 16.94 581.948 17.06C582.015 17.1667 582.122 17.22 582.268 17.22C582.468 17.22 582.715 17.02 583.008 16.62C583.315 16.22 583.635 15.6133 583.968 14.8C584.315 13.9867 584.648 12.9867 584.968 11.8C585.075 11.4 585.235 11.1133 585.448 10.94C585.675 10.7667 586.008 10.68 586.448 10.68C586.755 10.68 586.968 10.72 587.088 10.8C587.208 10.8667 587.268 11 587.268 11.2C587.268 11.5333 587.102 12.4467 586.768 13.94C586.395 15.6467 586.208 16.7 586.208 17.1C586.208 17.3533 586.262 17.5533 586.368 17.7C586.475 17.8333 586.615 17.9 586.788 17.9C587.055 17.9 587.368 17.74 587.728 17.42C588.102 17.0867 588.595 16.5533 589.208 15.82C589.368 15.6333 589.548 15.54 589.748 15.54C589.922 15.54 590.055 15.62 590.148 15.78C590.255 15.94 590.308 16.16 590.308 16.44C590.308 16.9733 590.182 17.3867 589.928 17.68C589.355 18.3867 588.735 18.9667 588.068 19.42C587.415 19.8733 586.668 20.1 585.828 20.1C585.188 20.1 584.715 19.8533 584.408 19.36C584.115 18.8667 583.968 18.1733 583.968 17.28C583.742 18.1867 583.402 18.8867 582.948 19.38C582.495 19.86 582.008 20.1 581.488 20.1ZM591.307 9.36C590.747 9.36 590.327 9.23333 590.047 8.98C589.767 8.71333 589.627 8.34667 589.627 7.88C589.627 7.41333 589.807 7.02667 590.167 6.72C590.54 6.4 591 6.24 591.547 6.24C592.04 6.24 592.44 6.36 592.747 6.6C593.053 6.84 593.207 7.18 593.207 7.62C593.207 8.15333 593.033 8.58 592.687 8.9C592.34 9.20667 591.88 9.36 591.307 9.36ZM591.147 20.1C590.28 20.1 589.647 19.7933 589.247 19.18C588.86 18.5667 588.667 17.7533 588.667 16.74C588.667 16.14 588.74 15.3733 588.887 14.44C589.047 13.4933 589.247 12.6133 589.487 11.8C589.607 11.3733 589.767 11.08 589.967 10.92C590.167 10.76 590.487 10.68 590.927 10.68C591.607 10.68 591.947 10.9067 591.947 11.36C591.947 11.6933 591.82 12.4667 591.567 13.68C591.247 15.1467 591.087 16.14 591.087 16.66C591.087 17.06 591.14 17.3667 591.247 17.58C591.353 17.7933 591.533 17.9 591.787 17.9C592.027 17.9 592.327 17.7333 592.687 17.4C593.047 17.0667 593.527 16.54 594.127 15.82C594.287 15.6333 594.467 15.54 594.667 15.54C594.84 15.54 594.973 15.62 595.067 15.78C595.173 15.94 595.227 16.16 595.227 16.44C595.227 16.9733 595.1 17.3867 594.847 17.68C593.527 19.2933 592.293 20.1 591.147 20.1ZM597.328 20.54C596.635 20.54 596.102 20.38 595.728 20.06C595.368 19.74 595.188 19.38 595.188 18.98C595.188 18.6333 595.315 18.3333 595.568 18.08C595.822 17.8267 596.195 17.7 596.688 17.7C596.862 17.7 597.062 17.72 597.288 17.76C597.528 17.7867 597.708 17.8067 597.828 17.82C597.815 17.4733 597.735 17.1467 597.588 16.84C597.455 16.5333 597.282 16.24 597.068 15.96C596.855 15.6667 596.655 15.4133 596.468 15.2C596.055 15.9867 595.642 16.64 595.228 17.16C594.828 17.68 594.388 18.1733 593.908 18.64C593.668 18.88 593.415 19 593.148 19C592.935 19 592.762 18.9267 592.628 18.78C592.495 18.62 592.428 18.4267 592.428 18.2C592.428 17.9333 592.522 17.6867 592.708 17.46L592.968 17.14C593.702 16.2333 594.255 15.4867 594.628 14.9C594.855 14.5133 595.122 14 595.428 13.36C595.735 12.7067 596.035 12.0333 596.328 11.34C596.582 10.7533 597.108 10.46 597.908 10.46C598.282 10.46 598.542 10.4933 598.688 10.56C598.835 10.6267 598.908 10.7333 598.908 10.88C598.908 10.96 598.882 11.0867 598.828 11.26C598.775 11.4333 598.702 11.6067 598.608 11.78C598.368 12.26 598.248 12.6667 598.248 13C598.248 13.2 598.315 13.42 598.448 13.66C598.595 13.9 598.815 14.2 599.108 14.56C599.535 15.12 599.855 15.6 600.068 16C600.295 16.3867 600.408 16.8133 600.408 17.28C600.408 17.4133 600.395 17.6 600.368 17.84C601.022 17.5867 601.788 16.9133 602.668 15.82C602.828 15.6333 603.008 15.54 603.208 15.54C603.382 15.54 603.515 15.62 603.608 15.78C603.715 15.94 603.768 16.16 603.768 16.44C603.768 16.9467 603.642 17.36 603.388 17.68C602.722 18.5067 602.082 19.0733 601.468 19.38C600.868 19.6733 600.122 19.8333 599.228 19.86C598.695 20.3133 598.062 20.54 597.328 20.54ZM613.364 16.16C613.67 16.16 613.824 16.3667 613.824 16.78C613.824 17.3 613.704 17.7067 613.464 18C613.237 18.2933 612.924 18.44 612.524 18.44L611.784 18.42C611.65 18.4067 611.457 18.4 611.204 18.4C611.257 19.16 611.284 19.92 611.284 20.68C611.284 22.6933 611.017 24.4467 610.484 25.94C609.964 27.4333 609.144 28.18 608.024 28.18C607.264 28.18 606.684 27.74 606.284 26.86C605.897 25.9933 605.704 24.9333 605.704 23.68C605.704 22.12 605.877 20.58 606.224 19.06C605.77 19.7533 605.177 20.1 604.444 20.1C603.71 20.1 603.097 19.7933 602.604 19.18C602.124 18.5667 601.884 17.7733 601.884 16.8C601.884 15.7467 602.13 14.7467 602.624 13.8C603.13 12.8533 603.797 12.0933 604.624 11.52C605.464 10.9333 606.357 10.64 607.304 10.64C607.624 10.64 607.87 10.7467 608.044 10.96C608.164 10.5333 608.344 10.2467 608.584 10.1C608.824 9.95333 609.157 9.88 609.584 9.88C610.037 9.88 610.337 9.94667 610.484 10.08C610.644 10.2133 610.717 10.4067 610.704 10.66C610.704 10.82 610.617 11.1933 610.444 11.78C610.284 12.3533 610.177 12.7333 610.124 12.92C609.91 13.6667 609.677 14.4933 609.424 15.4C609.184 16.3067 608.99 17.1333 608.844 17.88C608.417 20.0133 608.204 21.9 608.204 23.54C608.204 24.1533 608.25 24.6733 608.344 25.1C608.45 25.54 608.584 25.76 608.744 25.76C608.877 25.76 609.017 25.5333 609.164 25.08C609.324 24.6267 609.457 24.02 609.564 23.26C609.67 22.5 609.724 21.6933 609.724 20.84C609.724 19.8267 609.677 18.9267 609.584 18.14C609.57 18.0733 609.564 17.9667 609.564 17.82C609.564 17.38 609.67 17.0133 609.884 16.72C610.11 16.4267 610.424 16.28 610.824 16.28C610.877 16.28 611.384 16.26 612.344 16.22C612.744 16.18 613.084 16.16 613.364 16.16ZM605.244 18.08C605.55 18.08 605.844 17.8933 606.124 17.52C606.404 17.1333 606.604 16.6733 606.724 16.14L607.584 12.5C606.997 12.5133 606.457 12.72 605.964 13.12C605.484 13.52 605.097 14.0533 604.804 14.72C604.524 15.3733 604.384 16.0667 604.384 16.8C604.384 17.2133 604.457 17.5333 604.604 17.76C604.764 17.9733 604.977 18.08 605.244 18.08ZM614.184 20.1C613.584 20.1 613.09 19.8267 612.704 19.28C612.33 18.72 612.144 18.0267 612.144 17.2C612.144 16.2 612.21 15.2867 612.344 14.46C612.477 13.62 612.697 12.7333 613.004 11.8C613.137 11.4 613.324 11.1133 613.564 10.94C613.804 10.7667 614.184 10.68 614.704 10.68C614.997 10.68 615.197 10.7267 615.304 10.82C615.424 10.9133 615.484 11.0533 615.484 11.24C615.484 11.3467 615.41 11.7067 615.264 12.32C615.13 12.8133 615.024 13.26 614.944 13.66C614.677 15.06 614.544 15.9933 614.544 16.46C614.544 16.74 614.577 16.94 614.644 17.06C614.71 17.1667 614.817 17.22 614.964 17.22C615.164 17.22 615.41 17.02 615.704 16.62C616.01 16.22 616.33 15.6133 616.664 14.8C617.01 13.9867 617.344 12.9867 617.664 11.8C617.77 11.4 617.93 11.1133 618.144 10.94C618.37 10.7667 618.704 10.68 619.144 10.68C619.45 10.68 619.664 10.72 619.784 10.8C619.904 10.8667 619.964 11 619.964 11.2C619.964 11.5333 619.797 12.4467 619.464 13.94C619.09 15.6467 618.904 16.7 618.904 17.1C618.904 17.3533 618.957 17.5533 619.064 17.7C619.17 17.8333 619.31 17.9 619.484 17.9C619.75 17.9 620.064 17.74 620.424 17.42C620.797 17.0867 621.29 16.5533 621.904 15.82C622.064 15.6333 622.244 15.54 622.444 15.54C622.617 15.54 622.75 15.62 622.844 15.78C622.95 15.94 623.004 16.16 623.004 16.44C623.004 16.9733 622.877 17.3867 622.624 17.68C622.05 18.3867 621.43 18.9667 620.764 19.42C620.11 19.8733 619.364 20.1 618.524 20.1C617.884 20.1 617.41 19.8533 617.104 19.36C616.81 18.8667 616.664 18.1733 616.664 17.28C616.437 18.1867 616.097 18.8867 615.644 19.38C615.19 19.86 614.704 20.1 614.184 20.1ZM628.542 16.14C628.715 16.14 628.849 16.22 628.942 16.38C629.049 16.54 629.102 16.76 629.102 17.04C629.102 17.52 628.989 17.9333 628.762 18.28C628.389 18.8533 627.895 19.3 627.282 19.62C626.682 19.94 625.962 20.1 625.122 20.1C623.842 20.1 622.849 19.72 622.142 18.96C621.435 18.1867 621.082 17.1467 621.082 15.84C621.082 14.92 621.275 14.0667 621.662 13.28C622.049 12.48 622.582 11.8467 623.262 11.38C623.955 10.9133 624.735 10.68 625.602 10.68C626.375 10.68 626.995 10.9133 627.462 11.38C627.929 11.8333 628.162 12.4533 628.162 13.24C628.162 14.16 627.829 14.9533 627.162 15.62C626.509 16.2733 625.389 16.7933 623.802 17.18C624.122 17.7933 624.662 18.1 625.422 18.1C625.969 18.1 626.415 17.9733 626.762 17.72C627.122 17.4667 627.535 17.04 628.002 16.44C628.162 16.24 628.342 16.14 628.542 16.14ZM625.262 12.64C624.769 12.64 624.349 12.9267 624.002 13.5C623.669 14.0733 623.502 14.7667 623.502 15.58V15.62C624.289 15.4333 624.909 15.1533 625.362 14.78C625.815 14.4067 626.042 13.9733 626.042 13.48C626.042 13.2267 625.969 13.0267 625.822 12.88C625.689 12.72 625.502 12.64 625.262 12.64Z" fill="black"/>
</svg>
